<?xml version="1.0" encoding="UTF-8"?>
<svg id="Layer_1" data-name="Layer 1" xmlns="http://www.w3.org/2000/svg" viewBox="0 0 298.9 298.71">
  <defs>
    <style>
      .cls-1 {
        fill: #7a551e;
      }

      .cls-1, .cls-2 {
        stroke-width: 0px;
      }

      .cls-2 {
        fill: #79541e;
      }
    </style>
  </defs>
  <path id="Circle" class="cls-1" d="m298.15,135.42c-2.89-25.46-10.58-49.2-25.43-70.31C248.08,30.07,214.78,8.11,172.36,1.82c-40.32-5.97-77.76,2.68-111.01,26.93C27.94,53.12,8.23,86.19,1.91,126.76c-3.9,25.02-2.03,50.04,7.47,73.9,22.81,57.3,65.22,89.37,126.15,97.37,4.18.41,8.78.67,13.74.68,5.06,0,9.74-.26,13.98-.67,70.63-6.1,128.91-64.39,134.9-134.92.45-4.18.75-8.84.75-13.91,0-5.03-.3-9.65-.75-13.8Zm-9.67,26.8c-2.95,28.71-13.42,54.31-31.89,76.52-5.19,6.25-13.62,15.26-25.68,24.01-23.22,16.86-45.39,22.2-52.04,23.64-6.42,1.39-18.55,3.53-33.85,2.94-31.97-1.22-56.12-13.5-68.18-20.84-30.4-18.52-45.09-42.98-48.43-48.73-6.49-11.17-11.36-23.46-14.47-36.87-10.24-44.23-1.9-85.34,26.94-121.33,22.06-27.53,50.76-44.52,85.42-49.84,39.3-6.04,75.84,1.86,107.8,26.72,13.85,10.77,25.16,23.17,33.91,37.19,11.52,18.46,16.11,35.49,18.09,44.95,3.51,16.81,3.24,31.2,2.33,41.06.01.19.02.38.04.57Z"/>
  <path id="BottomBand" class="cls-2" d="m83.22,168.14c-.97.07-1.94.1-2.9.21-5.53.69-8.31-2.49-7.16-8.08.59-2.84,2.62-2.27,4.54-2.19,14.87.64,28.95,4.67,42.75,9.93,24.43,9.31,46.64,22.15,65.02,41.04,5.01,5.14,4.53,7.44-1.9,10.11-2.59,1.08-4.11.55-5.44-2.02-3.75-7.22-9.31-10.39-16.91-9.34-8.04,1.11-15.08,3.99-17.64,12.81-.27.93-.43,1.89-.72,2.82-.54,1.74-1.72,2.69-3.57,2.7-1.83,0-3.24-.83-3.66-2.59-3.07-12.9-12.43-18.48-24.32-21.4-3.97-.98-7.63-.8-11.35.74-1.32.55-2.73.98-4.15,1.17-.97.13-1.87-.54-2.3-1.48-.42-.93.37-1.41.91-2.01,8.2-9.07,8.04-19.68-.32-28.01-3.04-3.03-6.57-4.63-10.88-4.4Z"/>
  <path id="MiddleBand" class="cls-2" d="m219.66,153.43c-.83-1.18-1.91-2.18-2.9-3.24-17.38-18.43-38.53-31.26-61.61-41.08-16.27-6.92-33.11-11.86-50.93-12.68-2.42,0-4.85-.08-7.27.02-2.16.09-3.35.66-2.03,3.3,5.19,10.37,2.83,22.27-5.78,30.15-3.2,2.93-6.91,4.68-11.25,5.12-4.51.46-5.45,2.16-5.56,8.7-.07,4.05,1.61,5.81,5.7,6.03,5.96.32,11.98.62,17.81,1.74,18.53,3.57,35.99,10.32,52.62,19.17,15.77,8.39,30.51,18.33,42.44,31.76,7.61,8.57,7.7,8.9,15.28.11.21-.24.43-.48.65-.72,1.28-1.39,1.22-2.67.22-4.34-6.99-11.71-2.02-27.54,10.2-33.67,2.29-1.15,6.57-.1,6.59-3.5.02-2.28-2.6-4.63-4.17-6.86Zm-69.05,11.71c-13.18-.1-23.95-11.03-23.89-24.24.07-13.59,10.9-24.21,24.46-23.99,13.2.21,23.9,11.19,23.76,24.36-.14,13.12-11.2,23.98-24.33,23.88Z"/>
  <path id="TopBand" class="cls-2" d="m226.96,149.02c-15.55-19.33-34.22-32.53-55.08-42.84-20.85-10.31-42.65-17.41-67.18-19.15,5.1-5.28,10.7-7.26,16.1-9.51,1.49-.62,2.45.24,2.83,1.76,2.14,8.47,9.16,10.17,16.16,10.36,7.81.21,14.6-2.89,18.08-10.65,2.72-6.06,3.95-6.7,10.28-4.74,12.8,3.96,24.55,9.82,34.54,18.92,2.34,2.13,3.14,3.72.62,6.69-4.07,4.79-3.41,14.19.7,20.57,4.11,6.39,8.88,8.56,16.48,7.06,2.48-.49,3.48.1,4.17,2.48,1.68,5.76,2.09,11.62,2.32,19.06Z"/>
  <path id="Spike8" class="cls-2" d="m138.23,86.72c-.79-.13-3.08-.24-5.21-.88-6.94-2.07-8.28-5.27-5.56-11.9,2.6-6.32,2.74-13.2,4.08-19.81.37-1.83-.06-4.34,2.33-4.81,2.04-.41,2.67,1.92,3.85,3.18,5.5,5.89,9.88,12.72,15.66,18.39,4.17,4.09,3.82,7.68-.65,11.41-3.27,2.73-8.19,4.4-14.49,4.42Z"/>
  <path id="Spike7" class="cls-2" d="m83.82,98.29c1.15.56,2.26,1.29,3.47,1.65,6.37,1.89,8.04,4.1,7.84,10.64-.27,8.77-6.01,17.54-13.34,20.31-3.21,1.21-6.46,1.61-8.8-1.52-7.23-9.69-14.35-19.46-21.48-29.23-.34-.47-.3-1.23-.44-1.85,10.92-.7,21.84-.71,32.76,0Z"/>
  <path id="Spike6" class="cls-2" d="m88.46,199.15c-9.34-1.28-18.44-2.55-27.54-3.77-3.05-.41-2.55-1.63-.96-3.37,5.65-6.19,11.22-12.44,16.9-18.6,3.5-3.8,8.69-4.49,13.21-1.66,6.65,4.16,9.49,10.45,8.97,18.1-.41,6.02-4.8,9.53-10.57,9.3Z"/>
  <path id="Spike5" class="cls-2" d="m110.05,204.9c8.07.34,14.84,4.97,20.01,11.96,2.28,3.08,2.12,6.69-1.09,9.57-8.52,7.62-17,15.28-25.57,22.83-1.12.99-2.3,2.86-4.01,2.05-1.43-.68-.9-2.62-.84-4,.5-12.37.9-24.76,1.69-37.11.35-5.44,4.91-5.04,9.81-5.29Z"/>
  <path id="Spike4" class="cls-2" d="m162.18,209.61c11.04-.15,15.82,6.21,13.16,16.28-1.77,6.69-2.82,13.58-4.29,20.35-.29,1.33-.23,3.22-1.97,3.57-1.63.32-2.53-1.22-3.45-2.29-5.05-5.88-10.18-11.67-15.71-17.13-5.31-5.25-4.52-12.27,1.45-16.76,3.32-2.5,7.21-3.53,10.82-4.02Z"/>
  <path id="Spike3" class="cls-2" d="m211.99,197.29c-4.7-2.98-5.8-7.49-5.31-12.64.76-7.99,5.03-13.87,11.43-18.27,4.26-2.93,8.26-2.59,11.19,1.29,6.53,8.62,12.73,17.49,19.03,26.29.74,1.03,1.61,2.18.27,3.43-12.2.56-24.41.72-36.61-.09Z"/>
  <path id="Spike2" class="cls-2" d="m203.38,109.07c.08-7.92,4.33-11.32,10.95-10.03,6.14,1.2,12.35,2.11,18.52,3.15,1.23.21,2.82-.24,3.47,1.14.69,1.46-.73,2.32-1.57,3.21-4.66,4.93-8.97,10.11-12.32,16.05-2.4,4.25-6.06,3.97-9.57,1.93-6.23-3.61-8.69-9.6-9.48-15.45Z"/>
  <path id="Spike1" class="cls-2" d="m195.39,76.45c-.34,1.54,1.8,4.85-.08,6.03-2.26,1.42-4.46-1.66-6.64-2.85-5.53-3.02-11.25-5.53-17.3-7.32-1.1-.33-2.95-.47-2.78-2.09.09-.82,1.43-1.61,2.35-2.2,6.07-3.93,12.19-7.8,18.28-11.71,2.61-1.68,4.09-1.33,4.41,2.07.54,5.76,2.14,11.41,1.76,18.08Z"/>
  <path id="MiddleSpike" class="cls-2" d="m170.15,140.66c-.73,11.8-9.89,20.44-20.87,20.17-8.88-.21-18.59-7.92-18.64-20.07-.04-11.4,8.76-20.13,19.93-20.01,10.95.13,19.72,9.04,19.58,19.91Z"/>
</svg>