<?xml version="1.0" encoding="UTF-8"?>
<svg id="Layer_1" data-name="Layer 1" xmlns="http://www.w3.org/2000/svg" viewBox="0 0 298.65 298.25">
  <defs>
    <style>
      .cls-1 {
        fill: #79541f;
        stroke-width: 0px;
      }
    </style>
  </defs>
  <path id="Circle" class="cls-1" d="m298.65,134.77c-1.16-1.04-.15-2.76-1.2-3.83-2.85-23.82-11.14-45.63-24.6-65.45-14.65-21.58-33.79-38.12-57.12-49.8C198.23,6.93,179.57,2.12,160.19.35c-8.32-.76-16.76-.07-25.15-.03-1.13.98-2.79.07-3.9,1.09-17.69,2.01-34.46,7.17-50.18,15.43C48.38,33.97,25,59.59,11.01,93.68,5.39,107.38,1.99,121.7.45,136.33c-.93,8.81-.14,17.79-.12,26.69.98,1.36.08,3.17,1.09,4.52,3.99,31.35,16.5,58.85,37.89,82.13,24.76,26.94,55.48,42.67,91.81,47.4,1.09,1.01,2.8.02,3.85,1.18h28.33c1.35-1.14,2.97-.43,4.46-.63,9.24-.19,18.04-2.77,26.72-5.5,33.22-10.45,59.47-30.41,79.28-58.89,8.87-12.76,15.22-26.78,19.61-41.64,2.31-7.82,4.48-15.73,4.65-24,.17-1.3-.45-2.73.63-3.89v-28.92Zm-149.6,153.3c-76.53,0-138.62-62.4-138.63-139.33-.02-76.07,62.57-138.37,138.99-138.36,76.62,0,139.08,62.26,139.05,138.59-.03,77.09-62.17,139.09-139.41,139.1Z"/>
  <path id="Wrench" class="cls-1" d="m53.86,64.58c9.5,10.17,18.44,19.71,27.33,29.28,3.54,3.82,3.45,3.81,7.47.38,11.87-10.12,23.75-20.24,35.72-30.24,1.81-1.51,1.71-2.24.14-3.77-9.31-9.05-18.53-18.19-28.17-27.69,4.92-2.39,9.44-2.13,13.96-1.46,18.48,2.74,34.12,17.55,36.98,35.08,1.53,9.37-.19,18.37-3.72,27.04-.78,1.92-.66,3.11.64,4.7,15.44,18.88,31.04,37.65,46.05,56.87,4.09,5.23,8,6.97,14.58,6.3,12.31-1.26,24.08,1.18,34.01,9.22,10.1,8.19,14.69,19.3,16.35,31.86.66,5.01.74,10.02-.05,15.02-.18,1.13-.25,2.54-1.49,2.91-1.32.39-1.48-1.18-2.16-1.88-7.68-8.01-15.35-16.04-23.04-24.03-3.46-3.6-3.48-3.57-7.2-.22-11.27,10.18-22.51,20.39-33.86,30.49-1.96,1.74-2.6,2.82-.5,5.06,7.37,7.87,14.51,15.95,21.73,23.95.97,1.07,2.85,2.35,2.31,3.43-.78,1.56-3.05,1.53-4.8,1.54-7.35.06-14.03-2.45-20.3-5.93-10.55-5.85-19-13.78-23.12-25.45-3.89-11.02-2.15-21.67,2.77-31.96.82-1.72.88-2.86-.4-4.42-16.86-20.55-33.68-41.14-50.41-61.81-1.59-1.97-3.13-2.52-5.58-2.22-9.9,1.19-19.67.77-29.08-3.02-13.02-5.25-20.24-15.41-23.97-28.43-2.8-9.77-3.42-19.73-2.19-30.62Z"/>
</svg>