<?xml version="1.0" encoding="UTF-8"?>
<svg id="Layer_1" data-name="Layer 1" xmlns="http://www.w3.org/2000/svg" viewBox="0 0 297.5 297.69">
  <defs>
    <style>
      .cls-1 {
        fill: #78541e;
      }

      .cls-1, .cls-2 {
        stroke-width: 0px;
      }

      .cls-2 {
        fill: #79541e;
      }
    </style>
  </defs>
  <path id="Circle" class="cls-2" d="m295.69,125.98c-5.44-37.77-23.83-68.8-53.44-92.91C219.76,14.76,193.91,4.17,165.08.93c-3.11-.35-6.22-.62-9.33-.93h-13.89c-.56.35-1.18.16-1.77.16-4.02.02-8.03.24-12.01.82-18.97,2.76-36.83,8.78-53.45,18.34-14.89,8.56-27.98,19.3-39.15,32.38-7.18,8.42-13.37,17.5-18.56,27.27-6.21,11.7-10.78,24.01-13.67,36.93-1.48,6.61-2.7,13.26-2.96,20.07-.07,1.96.13,3.94-.28,5.89v13.89c.33.43.23.95.26,1.43,1.12,20.29,6.3,39.51,15.24,57.75,27.94,57.03,91.13,90.42,153.94,81.25,30.34-4.43,57.27-16.54,79.61-37.56,38.31-36.05,54.14-80.6,46.65-132.64Zm-147.2,161.41c-76.52-.06-138.35-62.18-138.28-138.95.06-76.36,62.14-138.25,138.66-138.24,76.59.01,138.55,62.04,138.53,138.7-.02,76.66-62.09,138.54-138.9,138.49Z"/>
  <path id="Cross" class="cls-1" d="m74.23,185.99c-11.79,0-23.59-.03-35.38.04-1.41,0-1.67-.41-1.67-1.73.04-23.7.04-47.39,0-71.09,0-1.31.31-1.62,1.62-1.62,23.64.04,47.28.02,70.93.06,1.46,0,1.93-.29,1.93-1.87-.06-23.64-.02-47.28-.07-70.93,0-1.41.41-1.67,1.73-1.67,23.7.04,47.39.04,71.09,0,1.31,0,1.62.31,1.62,1.62-.04,23.64-.02,47.28-.06,70.93,0,1.46.29,1.93,1.87,1.93,23.64-.06,47.28-.02,70.93-.07,1.41,0,1.67.41,1.67,1.73-.04,23.7-.04,47.39,0,71.09,0,1.31-.31,1.62-1.62,1.62-23.64-.04-47.28-.02-70.93-.06-1.46,0-1.93.29-1.93,1.87.06,23.64.02,47.28.07,70.93,0,1.41-.41,1.67-1.73,1.67-23.7-.04-47.39-.04-71.09,0-1.31,0-1.62-.31-1.62-1.62.04-23.64.02-47.28.06-70.93,0-1.46-.29-1.94-1.87-1.93-11.85.07-23.7.04-35.55.04Z"/>
</svg>