<?xml version="1.0" encoding="UTF-8"?>
<svg id="Layer_1" data-name="Layer 1" xmlns="http://www.w3.org/2000/svg" viewBox="0 0 297.75 297.68">
  <defs>
    <style>
      .cls-1 {
        fill: #78541e;
      }

      .cls-1, .cls-2 {
        stroke-width: 0px;
      }

      .cls-2 {
        fill: #79541e;
      }
    </style>
  </defs>
  <path id="Circle" class="cls-1" d="m293.6,114.74c-11.63-47.1-39.81-80.98-83.72-101.58C193.09,5.28,175.26,1.17,156.72.25c-1.26-.3-2.57.14-3.82-.25h-8.14c-1.19.31-2.4.08-3.6.15-3.58.02-7.15.16-10.71.6-11.83,1.48-23.32,4.33-34.46,8.53-9.46,3.56-18.43,8.1-26.99,13.48-9.56,6.01-18.23,13.12-26.22,21.06-2.63,2.62-5.11,5.42-7.53,8.25-7.37,8.62-13.63,17.98-18.87,28.01-4.63,8.87-8.32,18.13-11,27.77C2.33,118.75.11,129.79.15,141.17c-.09,1.19.19,2.4-.15,3.58v8.14c.38,1.26-.05,2.56.25,3.82.34,8.1,1.49,16.09,3.22,24.01,16.58,76.04,89.64,126.67,166.65,115.38,30.27-4.44,56.75-17.07,79.37-37.68,39.5-35.99,56.91-91.86,44.11-143.68Zm-145.08,172.73c-76.48-.02-138.52-62.24-138.32-139.05C10.41,71.69,72.58,9.85,149.48,10.21c76.44.35,137.87,62.16,137.99,138.65,0,76.65-62.13,138.63-138.94,138.61Z"/>
  <path id="Fist" class="cls-1" d="m163.35,234.04c-2.29.05-3.83.18-5.38.02-1.2-.12-1.48-.45-.73-1.47,1.98-2.69,3.86-5.45,5.9-8.09,9.93-12.88,19.9-25.74,29.85-38.61.59-.77,1.09-1.61,1.74-2.32.91-1.02.66-1.84-.12-2.79-2.75-3.32-3.85-3.4-6.56-.12-10.31,12.46-20.57,24.96-30.89,37.42-3.03,3.65-6.18,7.2-9.24,10.83-.78.92-1.57,1.06-2.66.59-8.57-3.75-16.83-8.06-24.59-13.28-1.47-.99-1.46-1.13-.28-2.57,6.15-7.49,12.77-14.56,19.25-21.76,10.37-11.52,20.93-22.86,31.1-34.55.76-.88,1.46-1.81,2.22-2.69.56-.64.53-1.21-.12-1.74-1.59-1.3-3.46-1.9-5.48-2.04-.79-.05-1.19.6-1.64,1.07-5.4,5.56-10.5,11.4-15.66,17.18-11.84,13.25-23.44,26.72-35.5,39.78-1.45,1.56-2.81,2-4.81,1.3-3.15-1.11-6.28-2.22-9.33-3.59-.76-.34-1.42-.83-1.97-1.46-4.55-5.12-8.54-10.63-11.96-16.56-.74-1.28-.63-2.2.36-3.34,8.42-9.63,17.38-18.76,26.12-28.09,9.37-10,18.97-19.79,27.97-30.14,1.49-1.71,1.43-2.18-.27-3.63-.29-.25-.61-.48-.93-.7-3.16-2.14-3.85-2.12-6.45.62-7.84,8.25-15.29,16.86-22.9,25.32-8.64,9.62-17.09,19.41-26.14,28.66-1.64,1.68-1.83,1.69-3.1-.24-3.81-5.8-6.87-11.98-9.37-18.45-.43-1.12-.31-2.13.2-3.21,4.27-9.16,9.07-18.05,13.66-27.05,2.94-5.77,5.95-11.5,8.7-17.37.62-1.32.42-2.08-.92-2.58-.23-.08-.43-.21-.65-.31-3.7-1.66-4.59-1.4-6.58,2.07-8.14,14.23-15.84,28.69-23.3,43.28-1.14,2.22-1.13,3.97.05,6.16,4.36,8.08,8.58,16.24,12.76,24.42,1.69,3.31,2.03,2.99-1.88,3.88-1.32.3-2.68.35-4.02.5-1.88.21-3.15-.48-4.13-2.02-2.35-3.66-4.79-7.27-7.09-10.96-1.01-1.62-2.3-2.48-4.18-2.2-2.91.43-4.59-1.1-6.24-3.27-2.52-3.33-3.19-7.2-3.93-11.09-.69-3.61-1.24-7.25-1.9-10.86-.23-1.23-.11-2.39.3-3.56,2.61-7.44,5.63-14.7,8.95-21.85.59-1.26,1.41-2.25,2.58-3.05,12.2-8.31,24.67-16.19,37.08-24.17,1.71-1.1,3.37-2.29,5.15-3.26,3.49-1.89,6.11-4.63,8.52-7.72,5.17-6.65,10.51-13.17,15.72-19.79,1.17-1.48,2.51-2.38,4.39-2.75,6.45-1.28,12.84-2.88,19.31-3.99,4.84-.84,9.64-.34,14.05,2.19,2.18,1.25,4.42,2.36,6.84,3.13,2.02.65,3.59,2.05,4.88,3.76.65.85.83,1.83.85,2.87.05,2.13.26,4.25.86,6.31,1.61,5.53,4.48,7.5,10.19,6.97,1.11-.1,2.21-.26,3.31-.43,1.69-.26,3.2-.02,4.67.99,3.93,2.68,7.66,5.61,11.14,8.83,2.12,1.97,2.31,4.63,1.56,7.26-.56,1.94-1.47,3.77-2.22,5.66-.71,1.77-.83,3.56-.12,5.37.34.87.88,1.43,1.79,1.74,3.34,1.13,6.83,1.34,10.29,1.67,2.3.21,4.06.97,5.54,2.86,3.03,3.9,6.06,7.79,8.72,11.96.98,1.53,1.22,2.98.55,4.76-1.83,4.89-3.31,9.9-5.27,14.74-2.03,5.02-2.91,10.16-3.03,15.54-.14,6.39-.59,12.77-.91,19.15-.06,1.27-.28,2.45-1.08,3.53-10.79,14.66-21.87,29.1-33.18,43.37-1.18,1.49-2.53,2.22-4.36,2.44-5.58.66-11.15,1.32-16.02,1.53Z"/>
  <path id="TL3kei" class="cls-2" d="m79.44,75.6c-9.61-5.12-19.23-10.25-28.73-15.31,4.07-4.16,8.07-8.22,12.04-12.32.78-.8.93-.06,1.19.39,3.58,6.14,7.15,12.28,10.72,18.42,1.67,2.87,3.33,5.75,5,8.62l-.21.2Z"/>
  <path id="BL3kei" class="cls-2" d="m78.42,221.07c-4.54,8.13-9.08,16.26-13.7,24.54-3.59-3.84-7.1-7.6-10.75-11.52,8.14-4.44,16.19-8.83,24.25-13.22.07.07.14.14.2.2Z"/>
  <path id="TR3kei" class="cls-2" d="m225.75,72.38c3.5-7.57,6.83-14.76,10.12-21.95.3-.66.56-.59,1.06-.26,4.29,2.81,8.59,5.59,13.14,8.55-8.09,4.55-16.01,9-24.32,13.67Z"/>
  <path id="BR3kei" class="cls-2" d="m211.42,258.58c-3.66-7.53-7.25-14.94-10.85-22.35.4-.37.66.02.9.14,7.02,3.45,14.01,6.92,21.03,10.36.87.43,1.24.65.3,1.49-3.79,3.37-7.51,6.82-11.38,10.35Z"/>
</svg>