<?xml version="1.0" encoding="UTF-8"?>
<svg id="Layer_1" data-name="Layer 1" xmlns="http://www.w3.org/2000/svg" viewBox="0 0 295.78 295.78">
  <defs>
    <style>
      .cls-1 {
        fill: #78541e;
        stroke-width: 0px;
      }
    </style>
  </defs>
  <path id="icon" class="cls-1" d="m295.58,136.89c-.12-2.52-.09-5.06-.41-7.57-.59-4.69-1.41-9.35-2.43-13.97-2.61-11.78-6.69-23.04-12.06-33.83-3.24-6.51-6.95-12.75-11.15-18.71-7.3-10.36-15.72-19.68-25.35-27.9-11.51-9.84-24.26-17.72-38.19-23.63C188.75,3.96,170.8-.23,151.94,0c-4.57.06-9.14.04-13.71.15-5.95.14-11.86.61-17.7,1.74-14.41,2.78-28.14,7.52-41.21,14.25-13.08,6.74-24.75,15.38-35.35,25.5-3.58,3.42-6.83,7.16-10.04,10.94-7.6,8.94-13.94,18.71-19.16,29.19-3.93,7.89-7.13,16.1-9.61,24.58C2.04,117.09.06,127.98.17,139.19c-.09,1.06.2,2.13-.17,3.17v11.24c.37,1.04.07,2.12.17,3.17,0,1.38.13,2.75.14,4.12.04,7.14,1.24,14.11,2.85,21.03,3.25,13.93,8.51,27.06,15.51,39.52,6.43,11.44,14.41,21.72,23.54,31.09,3.83,3.94,8,7.54,12.26,11.02,8.39,6.86,17.48,12.64,27.16,17.46,7.9,3.93,16.09,7.13,24.57,9.61,10.72,3.12,21.61,5.11,32.81,5,1.05.09,2.12-.2,3.16.17h11.24c1.05-.37,2.13-.07,3.19-.17,1.38,0,2.75-.13,4.12-.14,7.14-.03,14.11-1.24,21.04-2.86,13.88-3.24,26.96-8.47,39.38-15.44,11.4-6.4,21.64-14.33,31-23.41,3.99-3.87,7.62-8.07,11.15-12.38,9.1-11.12,16.29-23.38,21.77-36.63,6.74-16.28,10.7-33.16,10.69-50.86,0-5.67.09-11.34-.18-17.01Zm-79.46,130.7c-2.07,1.19-4.06,1.56-6.31,1.06-2.13-.47-2.85-1.7-2.14-3.76.68-1.96,1.96-3.57,3.22-5.16,3.87-4.87,8.16-9.4,11.77-14.49,7.16-10.13,11.17-21.51,13.45-33.61,3.39-17.98,2.52-35.84-1.19-53.66-1.23-5.93-2.36-11.88-2.26-17.99.07-4.37.96-8.52,2.76-12.49.11-.25.22-.5.31-.76.01-.04-.04-.1-.13-.26-4.22,4.11-7.35,8.86-9.43,14.32-2.5,6.57-3.51,13.51-4.99,20.34-1.22,5.64-2.14,11.4-5.25,16.43-4.34,7.02-10.38,11.35-18.89,11.35-8.13,0-14.28-5.96-14.91-14.08-.39-5.06,1.13-9.82,2.19-14.64,3.43-15.6,5.04-31.31,2.89-47.25-3.05-22.62-13.08-41.71-29.27-57.66-10.09-9.93-21.65-17.83-34.12-24.45-.18-.1-.38-.17-.83.01.48.44.99.86,1.45,1.32,10.58,10.86,14.37,23.93,12.62,38.79-1.3,11.01-5.09,21.25-9.58,31.29-4.39,9.8-9.66,19.17-14.15,28.92-1.62,3.52-2.66,7.22-3.88,10.87-1.1,3.3-2.46,6.49-4.74,9.19-1.01,1.2-2.16,2.23-3.7,2.67-2.93.85-5.81-.88-7.11-4.17-.6-1.51-.63-3.12-.88-4.7-1.62-10.5-7.46-17.9-16.73-22.77-2.24-1.18-4.56-2.16-7.46-2.99.62.59.93.89,1.25,1.18,5.55,5.03,7.81,11.58,8.66,18.76,1.04,8.87.24,17.72-.58,26.55-1.18,12.72-2.69,25.42-2.48,38.24.23,13.69,2.41,26.96,8.34,39.44,4.04,8.51,9.65,15.88,16.3,22.49,1.09,1.09,2.16,2.21,2.98,3.53,1.72,2.77,1.05,5.83-1.61,7.71-.66.47-1.15.11-1.68-.08-14.17-5.25-27.22-12.53-38.87-22.15-28.37-23.43-45.21-53.41-49.92-89.91C2.63,98.57,43.72,35.61,108.12,16.12c67.14-20.31,139.23,13.56,166.49,78.21,27.13,64.33,2.06,138.5-58.5,173.26Z"/>
</svg>