<?xml version="1.0" encoding="UTF-8"?>
<svg id="Layer_1" data-name="Layer 1" xmlns="http://www.w3.org/2000/svg" viewBox="0 0 297.75 297.68">
  <defs>
    <style>
      .cls-1 {
        fill: #78541e;
      }

      .cls-1, .cls-2, .cls-3 {
        stroke-width: 0px;
      }

      .cls-2 {
        fill: #79541e;
      }

      .cls-3 {
        fill: #8c6239;
      }
    </style>
  </defs>
  <path id="Circle" class="cls-1" d="m293.6,114.74c-11.63-47.1-39.81-80.98-83.72-101.58C193.09,5.28,175.26,1.17,156.72.25c-1.26-.3-2.57.14-3.82-.25h-8.14c-1.19.31-2.4.08-3.6.15-3.58.02-7.15.16-10.71.6-11.83,1.48-23.32,4.33-34.46,8.53-9.46,3.56-18.43,8.1-26.99,13.48-9.56,6.01-18.23,13.12-26.22,21.06-2.63,2.62-5.11,5.42-7.53,8.25-7.37,8.62-13.63,17.98-18.87,28.01-4.63,8.87-8.32,18.13-11,27.77C2.33,118.75.11,129.79.15,141.17c-.09,1.19.19,2.4-.15,3.58v8.14c.38,1.26-.05,2.56.25,3.82.34,8.1,1.49,16.09,3.22,24.01,16.58,76.04,89.64,126.67,166.65,115.38,30.27-4.44,56.75-17.07,79.37-37.68,39.5-35.99,56.91-91.86,44.11-143.68Zm-145.35,172.68c-76.66-.25-138.41-62.44-138.05-139.28C10.57,71.7,72.38,10.28,148.89,10.17c76.65,0,138.61,62.14,138.59,138.97-.03,76.53-62.27,138.54-139.22,138.29Z"/>
  <path id="Foot" class="cls-3" d="m79.32,250.92c-1.35-.05-2.69-.08-4.02-.31-1.49-.25-1.73-.75-.96-2.06,2.35-4.03,5.43-7.27,9.7-9.28,2.27-1.06,4.71-1.58,7.13-2.1,4.11-.87,7.07-3.03,9.07-6.83,3.32-6.3,6.2-12.78,8.86-19.37,4.41-10.93,8.53-21.97,11.93-33.26.4-1.34.79-2.67.79-4.1,0-1.05.65-1.91,1.25-2.72,1.22-1.63,2.5-3.21,3.72-4.84.76-1.01,1.52-2.07,1.63-3.35.08-.96.48-1.17,1.35-1.21,8.5-.39,16.92-1.57,25.3-2.98,10.67-1.8,21.25-4.08,31.97-5.56,3.08-.43,6.19-.85,9.35-.46.97.12,1.22.56,1.32,1.32.3,2.38.68,4.76.83,7.16.19,3.13.43,6.26.37,9.41-.02,1.08-.35,1.63-1.38,2.04-4.94,1.96-9.87,3.93-14.7,6.18-7.96,3.7-14.5,9.21-20.24,15.76-8.57,9.79-16.03,20.4-23.22,31.2-2.97,4.46-6.7,7.81-11.26,10.42-7.98,4.57-16.35,8.27-24.97,11.43-4.04,1.48-8.08,3.02-12.43,3.38-1.25.1-2.51.1-3.76.15-2.54.07-5.08.1-7.63-.01Z"/>
  <path id="Wing" class="cls-2" d="m221.35,46.36c1.7,2.84,2.03,5.63.83,8.56-1.01,2.49-2.76,4.42-4.78,6.12-4.75,4.02-10.3,6.65-15.98,9.01-3.08,1.28-6.18,2.51-9.35,3.54-5.49,1.78-10.62,4.38-15.8,6.87-8.89,4.26-18.09,7.82-27.15,11.68-.93.4-1.83.88-2.75,1.3-4.98,2.28-7.17,6.29-7.47,11.64-.45,7.99.08,15.98-.05,23.97-.03,2.08-.05,4.16-.04,6.25.01,2.03.51,3.94,1.72,5.59,1.22,1.64,2.51,1.55,3.45-.26,1.02-1.97,1.42-4.12,1.53-6.3.14-3.01.67-5.96.98-8.94.14-1.35,1.1-1.85,2.22-2.16,2.56-.72,5.2-1.09,7.81-1.57,13.85-2.52,27.12-6.96,40.15-12.19.47-.19,1.06-.74,1.44-.34.45.48-.11,1.09-.41,1.53-6.37,9.38-14.31,16.38-26.27,17.27-1.01.07-2.01.26-3.01.43-.72.12-.86.48-.4,1.1,1.43,1.95,2.84,3.92,4.63,5.58,1.44,1.33,3.09,2.03,5.09,2.1,3.95.13,7.24,1.91,10.16,4.43.47.41.88.91,1.22,1.43.69,1.03.48,1.51-.74,1.62-1.06.1-2.13.08-3.19.07-9.12-.04-17.99,1.63-26.77,3.89-7.61,1.96-15.38,2.32-23.19,2.23-.24,0-.48-.03-.72-.04q-3.19-.06-3.4-3.37c-.42-6.92-.41-13.84-.54-20.77-.17-8.71-.19-17.43-.95-26.13-.2-2.31-.36-4.64-1.31-6.8-.19-.44-.09-.85,0-1.28.81-4.28,3.51-7.23,6.85-9.72,4.66-3.48,9.96-5.72,15.37-7.68,10.55-3.83,21.46-6.44,32.29-9.33,8.45-2.25,16.9-4.51,25-7.87,3.35-1.39,6.59-3.02,9.4-5.39,1.89-1.6,3.37-3.46,4.12-6.06Z"/>
  <path id="LowerFeather" class="cls-2" d="m148.83,117.73c-.51,0-.71,0-.9,0-.57-.03-1.25.05-1.47-.65-.2-.62.36-.96.77-1.28,1.88-1.46,3.97-2.58,6.08-3.66,15.05-7.73,30.63-14.26,46.31-20.57,4.84-1.95,9.68-3.88,14.67-5.39.72-.22,1.68-.91,2.26-.15.54.71-.17,1.57-.62,2.22-2.14,3.1-4.35,6.16-6.52,9.24-.89,1.27-1.72,2.58-2.13,4.09-.18.67-.58.98-1.23,1-11.67.34-22.34,4.62-33.17,8.29-7.04,2.38-14.05,4.88-21.34,6.42-.99.21-2,.32-2.7.42Z"/>
  <path id="UpperFeather" class="cls-2" d="m217.8,72.29c-.19,3.05-2.55,5.82-5.52,6.66-6.34,1.78-12.28,4.62-18.29,7.26-13.57,5.96-26.91,12.44-40.54,18.26-2.4,1.02-4.81,2.01-7.32,2.74-.44.13-1.03.37-1.37-.03-.29-.35.18-.79.24-1.21.53-4.07,3.25-6.11,6.78-7.55,14.08-5.74,28.14-11.53,42.2-17.32,6.34-2.61,12.67-5.24,18.88-8.16,1.14-.53,2.22-1.18,3.34-1.74,1.21-.6,1.7-.26,1.62,1.1Z"/>
</svg>