<?xml version="1.0" encoding="UTF-8"?>
<svg id="Layer_1" data-name="Layer 1" xmlns="http://www.w3.org/2000/svg" viewBox="0 0 297.94 297.94">
  <defs>
    <style>
      .cls-1 {
        fill: #79541e;
        stroke-width: 0px;
      }
    </style>
  </defs>
  <path id="icon" class="cls-1" d="m297.94,143.3c-.37-1.05-.07-2.13-.17-3.2,0-1.39-.13-2.77-.14-4.15-.04-7.2-1.25-14.22-2.88-21.2-3.28-14.04-8.58-27.27-15.63-39.83-6.48-11.53-14.52-21.89-23.73-31.34-3.87-3.97-8.06-7.6-12.36-11.11-8.46-6.91-17.62-12.74-27.38-17.6-7.96-3.96-16.22-7.19-24.77-9.68C180.08,2.05,169.11.06,157.81.17c-1.06-.1-2.14.2-3.18-.17h-11.33c-1.05.37-2.13.07-3.2.17-1.39,0-2.77.13-4.15.14-7.2.04-14.22,1.25-21.2,2.88-14.04,3.28-27.27,8.58-39.83,15.63-11.53,6.48-21.89,14.52-31.34,23.73-3.97,3.87-7.6,8.06-11.11,12.36-6.91,8.46-12.74,17.62-17.6,27.38-3.96,7.96-7.19,16.22-9.68,24.77C2.05,117.86.06,128.83.17,140.12c-.1,1.06.2,2.14-.17,3.18v11.33c.37,1.05.07,2.13.17,3.2,0,1.39.13,2.77.14,4.15.04,7.2,1.25,14.22,2.88,21.2,3.28,14.04,8.58,27.27,15.63,39.83,6.48,11.53,14.52,21.89,23.73,31.34,3.87,3.97,8.06,7.6,12.36,11.11,8.46,6.91,17.62,12.74,27.38,17.6,7.96,3.96,16.22,7.19,24.77,9.68,10.81,3.15,21.78,5.15,33.07,5.04,1.06.1,2.14-.2,3.18.17h11.33c1.05-.37,2.13-.07,3.2-.17,1.39,0,2.77-.13,4.15-.14,7.2-.04,14.22-1.25,21.2-2.88,14.04-3.28,27.27-8.58,39.83-15.63,11.53-6.48,21.89-14.52,31.34-23.73,3.97-3.87,7.6-8.06,11.11-12.36,6.91-8.46,12.74-17.62,17.6-27.38,3.96-7.96,7.19-16.22,9.68-24.77,3.15-10.81,5.15-21.78,5.04-33.07.1-1.06-.2-2.14.17-3.18v-11.33Zm-272.67-2.08c1.83-24.12,9.75-46.05,24.33-65.32,21.89-28.92,51.05-45.37,87.11-49.5,5.29-.61,5.29-.56,5.29,4.79,0,9.74,0,19.48,0,29.22,0,10.63-.02,21.25.03,31.88,0,1.43-.25,2.08-1.87,2.36-24.7,4.26-42.43,22.16-46.41,46.88-.24,1.51-.89,1.63-2.12,1.63-21.53-.03-43.05-.04-64.58.02-1.59,0-1.91-.44-1.8-1.95Zm116.74,98.33c0,10.76,0,21.53,0,32.29,0,2.5,0,2.56-2.55,2.3-40.07-4.01-71.63-22.48-94.12-55.93-12.03-17.88-18.48-37.82-20.07-59.32-.12-1.63.11-2.19,1.94-2.19,21.46.07,42.92.06,64.38.02,1.43,0,2.08.26,2.36,1.87,4.19,24.11,22.13,41.97,46.18,45.96,1.6.27,1.93.81,1.92,2.29-.06,10.9-.03,21.8-.03,32.7Zm.03-43.23c0,1.46-.45,1.64-1.75,1.44-19.34-3.03-36.13-19.81-39.28-39.22-.24-1.49.1-1.83,1.58-1.82,6.27.08,12.54.03,18.81.03s12.54.04,18.81-.03c1.39-.02,1.85.31,1.84,1.78-.06,12.61-.06,25.21,0,37.82Zm-1.86-53.16c-6.27-.07-12.54-.03-18.81-.03-6.27,0-12.54-.05-18.81.03-1.51.02-1.8-.38-1.56-1.83,3.18-19.45,19.97-36.21,39.29-39.21,1.34-.21,1.74.03,1.74,1.45-.05,12.61-.06,25.21,0,37.82,0,1.49-.49,1.78-1.86,1.77Zm15.41-115.26c0-1.65.46-2.03,2.05-1.91,29.7,2.24,55.58,13.35,77.19,33.83,23.11,21.91,35.74,49.01,38.59,80.7.23,2.61.21,2.61-2.45,2.61-10.76,0-21.53,0-32.29,0-10.83,0-21.66-.04-32.49.04-1.64.01-2.11-.48-2.37-2.07-3.97-24.28-22-42.4-46.16-46.44-1.54-.26-2.08-.72-2.07-2.4.07-21.46.07-42.91,0-64.37Zm0,130.6c0-1.48.47-1.79,1.85-1.78,6.27.07,12.54.03,18.81.03s12.54.05,18.81-.03c1.49-.02,1.81.35,1.57,1.82-3.16,19.43-19.95,36.2-39.28,39.22-1.32.21-1.75,0-1.75-1.44.05-12.61.06-25.21,0-37.82Zm0-54.76c-.01-1.73.56-1.84,1.99-1.58,19.55,3.45,35.55,19.46,39.03,39.01.31,1.72-.2,2.02-1.79,1.99-6.2-.08-12.4-.03-18.6-.03-6.27,0-12.54-.04-18.81.03-1.43.02-1.83-.37-1.82-1.81.06-12.54.07-25.08-.01-37.61Zm117.83,55.92c-2.1,24.59-10.34,46.88-25.56,66.34-21.97,28.07-50.86,43.95-86.3,47.9-1.88.21-4.3,1.15-5.52.1-1.26-1.07-.38-3.59-.39-5.47-.05-9.67-.02-19.35-.02-29.02,0-10.9.03-21.8-.03-32.7,0-1.53.41-2,1.96-2.26,24.04-4.01,41.93-21.83,46.15-45.98.29-1.64.98-1.85,2.38-1.85,21.53.03,43.05.02,64.58.02,2.98,0,3,0,2.75,2.91Z"/>
</svg>