<?xml version="1.0" encoding="UTF-8"?>
<svg id="Layer_1" data-name="Layer 1" xmlns="http://www.w3.org/2000/svg" viewBox="0 0 297.75 297.67">
  <defs>
    <style>
      .cls-1 {
        fill: #78541e;
      }

      .cls-1, .cls-2 {
        stroke-width: 0px;
      }

      .cls-2 {
        fill: #79541e;
      }
    </style>
  </defs>
  <path class="cls-1" d="m293.6,114.74c-11.63-47.1-39.81-80.98-83.72-101.58C193.09,5.28,175.26,1.17,156.72.25c-1.26-.3-2.57.14-3.82-.25h-8.14c-1.19.31-2.4.08-3.6.15-3.58.02-7.15.16-10.71.6-11.83,1.48-23.32,4.33-34.46,8.53-9.46,3.56-18.43,8.1-26.99,13.48-9.56,6.01-18.23,13.12-26.22,21.06-2.63,2.62-5.11,5.42-7.53,8.25-7.37,8.62-13.63,17.98-18.87,28.01-4.63,8.87-8.32,18.13-11,27.77C2.33,118.75.11,129.79.15,141.17c-.09,1.19.19,2.4-.15,3.58v8.14c.38,1.26-.05,2.56.25,3.82.34,8.1,1.49,16.09,3.22,24.01,16.58,76.04,89.63,126.67,166.65,115.38,30.27-4.44,56.75-17.07,79.37-37.68,39.5-35.99,56.91-91.86,44.12-143.68Zm-48.18,138.26c-21.71,19.78-47.12,31.9-76.18,36.17-73.92,10.84-144.04-37.75-159.95-110.74-1.66-7.6-2.76-15.27-3.09-23.04-.29-1.21.13-2.47-.24-3.67v-7.81c.33-1.13.05-2.29.14-3.44-.04-10.93,2.09-21.51,5.01-31.97,2.58-9.25,6.12-18.14,10.56-26.66,5.03-9.63,11.04-18.61,18.11-26.89,2.33-2.72,4.7-5.41,7.23-7.92,7.67-7.61,15.99-14.44,25.16-20.21,8.21-5.16,16.83-9.52,25.9-12.94,10.7-4.03,21.73-6.77,33.08-8.19,3.42-.43,6.84-.56,10.28-.58,1.15-.07,2.31.16,3.45-.14h7.81c1.2.37,2.46-.05,3.67.24,17.8.88,34.92,4.83,51.03,12.39,42.14,19.77,69.19,52.29,80.35,97.49,12.28,49.73-4.43,103.36-42.34,137.9Z"/>
  <path id="RocketTip" class="cls-2" d="m138.26,113.55c4.17-3.55,8.25-7.04,12.34-10.5,13.74-11.64,27.49-23.27,41.21-34.94,1.32-1.12,2.65-1.59,4.36-1.37,1.77.22,3.58.16,5.36.34,1.33.13,2.16-.58,3.06-1.35,1.67-1.43,2.78-2.97,2.17-5.39-.55-2.23.38-3.98,2.22-5.41,2.79-2.17,5.64-4.25,8.63-6.13,2.8-1.77,4.48-1.61,6.89.68,5.28,4.99,10.53,10.01,15.76,15.05,2.44,2.35,2.58,4.06.69,6.91-1.56,2.34-3.28,4.55-5.2,6.61-1.13,1.21-2.46,1.89-4.13,1.64-1.7-.25-2.91.38-3.73,1.86-.19.34-.42.65-.67.95-1.47,1.77-1.87,3.69-.71,5.75,1.45,2.57.83,4.8-.52,7.29-9.67,17.9-19.76,35.58-29.73,53.31-1.4,2.48-2.81,4.96-4.26,7.54-17.92-14.28-35.78-28.52-53.72-42.82Z"/>
  <path id="Crosspiece" class="cls-2" d="m131.35,120.38c.26.18.54.35.8.55,18.58,14.49,37.16,28.98,55.75,43.45.74.57.77.86.08,1.5-3.35,3.08-6.68,6.18-9.94,9.35-.8.78-1.26.76-2.09.05-10.82-9.17-21.67-18.29-32.51-27.43-7.44-6.27-14.87-12.54-22.31-18.8q-1.37-1.15.19-2.16c3.04-1.98,6.08-3.96,9.12-5.93.28-.18.57-.35.93-.57Z"/>
  <path id="Neck" class="cls-2" d="m143.23,192.61c-6.42,3.98-12.79,7.92-19.14,11.9-.56.35-.9.28-1.39-.1-7.84-5.99-15.69-11.98-23.56-17.93-.65-.5-.63-.9-.32-1.57,3.24-7.01,6.46-14.04,9.67-21.07.33-.73.51-1.11,1.35-.38,10.9,9.52,21.83,19,32.76,28.49.21.18.39.4.63.65Z"/>
  <path id="Choke" class="cls-2" d="m121.22,142.73c13.41,11.07,26.62,21.97,39.95,32.98-4.29,2.05-8.42,4-12.54,6.01-.77.38-1.07-.21-1.46-.54-7.78-6.47-15.55-12.96-23.32-19.44-1.6-1.33-3.2-2.66-4.8-4-.35-.3-.81-.51-.68-1.15.94-4.54,1.86-9.08,2.84-13.86Z"/>
  <polyline id="Tail" class="cls-1" points="92.93 193.14 39.23 247.11 64.95 268.96 114.87 210.88"/>
</svg>