<?xml version="1.0" encoding="UTF-8"?>
<svg id="Layer_1" data-name="Layer 1" xmlns="http://www.w3.org/2000/svg" viewBox="0 0 297.75 297.68">
  <defs>
    <style>
      .cls-1 {
        fill: #78541e;
      }

      .cls-1, .cls-2 {
        stroke-width: 0px;
      }

      .cls-2 {
        fill: #79541e;
      }
    </style>
  </defs>
  <path id="Circle" class="cls-1" d="m293.6,114.74c-11.63-47.1-39.81-80.98-83.72-101.58C193.09,5.28,175.26,1.17,156.72.25c-1.26-.3-2.57.14-3.82-.25h-8.14c-1.19.31-2.4.08-3.6.15-3.58.02-7.15.16-10.71.6-11.83,1.48-23.32,4.33-34.46,8.53-9.46,3.56-18.43,8.1-26.99,13.48-9.56,6.01-18.23,13.12-26.22,21.06-2.63,2.62-5.11,5.42-7.53,8.25-7.37,8.62-13.63,17.98-18.87,28.01-4.63,8.87-8.32,18.13-11,27.77C2.33,118.75.11,129.79.15,141.17c-.09,1.19.19,2.4-.15,3.58v8.14c.38,1.26-.05,2.56.25,3.82.34,8.1,1.49,16.09,3.22,24.01,16.58,76.04,89.64,126.67,166.65,115.38,30.27-4.44,56.75-17.07,79.37-37.68,39.5-35.99,56.91-91.86,44.11-143.68Zm-145.38,172.68c-76.66-.26-138.4-62.46-138.02-139.31C10.59,71.68,72.41,10.27,148.91,10.17c76.64,0,138.58,62.15,138.56,138.99-.02,76.51-62.28,138.51-139.25,138.25Z"/>
  <path id="Knife" class="cls-2" d="m73.2,51.89c1.95,1.92,3.7,3.59,5.4,5.31,13.35,13.51,26.65,27.05,40.67,39.88,5.04,4.61,10.15,9.14,15.62,13.23,1.78,1.33,3.58,2.59,5.68,3.44,2.61,1.06,4.08,3.35,5.27,5.77,2.01,4.13,3.84,8.34,6.08,12.36,3.79,6.81,7.96,13.38,12.35,19.82.5.73.84.92,1.64.34,2.32-1.67,4.72-3.21,7.06-4.85.65-.46,1.03-.41,1.55.18,2.2,2.52,4.42,5.01,6.68,7.47.53.58.53.85-.17,1.27-2.2,1.32-4.34,2.74-6.54,4.04-.96.56-1.16.9-.27,1.83,6.91,7.2,13.81,14.4,20.62,21.7,11.62,12.47,23.17,25.01,33.8,38.35,2.35,2.95,4.64,5.96,6.52,9.25,2.06,3.61,1.88,4.44-1.28,7.1-2.91,2.44-6.14,4.39-9.42,6.26-4.03,2.3-8.12,4.49-12.22,6.66-4.44,2.36-7.89.47-8.39-4.54-.05-.53-.12-1.09,0-1.59.68-2.97-.54-5.23-2.49-7.34-7.44-8.03-14.95-16-21.94-24.42-10.06-12.11-19.52-24.68-28.8-37.39-.77-1.06-1.26-1.05-2.26-.41-3.46,2.21-7,4.31-10.48,6.5-.8.5-1.21.61-1.73-.38-1.44-2.74-2.97-5.43-4.54-8.1-.43-.73-.29-1.05.36-1.46,2.33-1.47,4.62-3.02,6.95-4.48.68-.43.82-.78.34-1.47-1.02-1.47-1.92-3.02-2.96-4.48-1.1-1.55-2.4-2.77-4.35-3.4-2.07-.67-3.77-2.15-5.48-3.5-10.82-8.59-19.92-18.79-27.9-30.01-10.3-14.47-18.05-30.17-22.27-47.49-1.94-7.97-3.05-16.06-3.11-24.28,0-.32,0-.64,0-1.18Z"/>
</svg>